<mxfile host="app.diagrams.net" modified="2022-09-18T19:07:20.544Z" agent="5.0 (Windows NT 10.0; Win64; x64) AppleWebKit/537.36 (KHTML, like Gecko) Chrome/105.0.0.0 Safari/537.36" etag="i-E-oXajM_17bxwE_XEw" version="20.3.2" type="github">
  <diagram id="C5RBs43oDa-KdzZeNtuy" name="Page-1">
    <mxGraphModel dx="782" dy="1619" grid="1" gridSize="10" guides="1" tooltips="1" connect="1" arrows="1" fold="1" page="1" pageScale="1" pageWidth="827" pageHeight="1169" math="0" shadow="0">
      <root>
        <mxCell id="WIyWlLk6GJQsqaUBKTNV-0" />
        <mxCell id="WIyWlLk6GJQsqaUBKTNV-1" parent="WIyWlLk6GJQsqaUBKTNV-0" />
        <mxCell id="-VXj3v_io8pPZTzsjLdz-0" value="IMAGE INPUT LAYER&amp;nbsp;" style="rounded=0;whiteSpace=wrap;html=1;" vertex="1" parent="WIyWlLk6GJQsqaUBKTNV-1">
          <mxGeometry x="320" y="-20" width="120" height="60" as="geometry" />
        </mxCell>
        <mxCell id="-VXj3v_io8pPZTzsjLdz-1" value="Convolutional Layer 75x75x3" style="rounded=0;whiteSpace=wrap;html=1;" vertex="1" parent="WIyWlLk6GJQsqaUBKTNV-1">
          <mxGeometry x="260" y="120" width="260" height="30" as="geometry" />
        </mxCell>
        <mxCell id="-VXj3v_io8pPZTzsjLdz-2" value="Relu Layer&amp;nbsp; 73x73x32" style="rounded=0;whiteSpace=wrap;html=1;" vertex="1" parent="WIyWlLk6GJQsqaUBKTNV-1">
          <mxGeometry x="260" y="160" width="260" height="30" as="geometry" />
        </mxCell>
        <mxCell id="-VXj3v_io8pPZTzsjLdz-3" value="Batch Normalization Layer&amp;nbsp; 36x36x32" style="rounded=0;whiteSpace=wrap;html=1;" vertex="1" parent="WIyWlLk6GJQsqaUBKTNV-1">
          <mxGeometry x="260" y="240" width="260" height="30" as="geometry" />
        </mxCell>
        <mxCell id="-VXj3v_io8pPZTzsjLdz-4" value="Max Pooling Layer&amp;nbsp; 36x36x32" style="rounded=0;whiteSpace=wrap;html=1;" vertex="1" parent="WIyWlLk6GJQsqaUBKTNV-1">
          <mxGeometry x="260" y="200" width="260" height="30" as="geometry" />
        </mxCell>
        <mxCell id="-VXj3v_io8pPZTzsjLdz-19" value="Dropout 36x36x32" style="rounded=0;whiteSpace=wrap;html=1;" vertex="1" parent="WIyWlLk6GJQsqaUBKTNV-1">
          <mxGeometry x="260" y="280" width="260" height="30" as="geometry" />
        </mxCell>
        <mxCell id="-VXj3v_io8pPZTzsjLdz-20" value="Convolutional Layer&amp;nbsp; 36x36x32" style="rounded=0;whiteSpace=wrap;html=1;" vertex="1" parent="WIyWlLk6GJQsqaUBKTNV-1">
          <mxGeometry x="260" y="395" width="260" height="30" as="geometry" />
        </mxCell>
        <mxCell id="-VXj3v_io8pPZTzsjLdz-21" value="Relu Layer&amp;nbsp; &amp;nbsp;34x34x64" style="rounded=0;whiteSpace=wrap;html=1;" vertex="1" parent="WIyWlLk6GJQsqaUBKTNV-1">
          <mxGeometry x="260" y="435" width="260" height="30" as="geometry" />
        </mxCell>
        <mxCell id="-VXj3v_io8pPZTzsjLdz-22" value="Batch Normalization Layer&amp;nbsp; 17x17x64" style="rounded=0;whiteSpace=wrap;html=1;" vertex="1" parent="WIyWlLk6GJQsqaUBKTNV-1">
          <mxGeometry x="260" y="515" width="260" height="30" as="geometry" />
        </mxCell>
        <mxCell id="-VXj3v_io8pPZTzsjLdz-23" value="Max Pooling Layer&amp;nbsp; 17x17x64" style="rounded=0;whiteSpace=wrap;html=1;" vertex="1" parent="WIyWlLk6GJQsqaUBKTNV-1">
          <mxGeometry x="260" y="475" width="260" height="30" as="geometry" />
        </mxCell>
        <mxCell id="-VXj3v_io8pPZTzsjLdz-24" value="Dropout&amp;nbsp; 17x17x64" style="rounded=0;whiteSpace=wrap;html=1;" vertex="1" parent="WIyWlLk6GJQsqaUBKTNV-1">
          <mxGeometry x="260" y="555" width="260" height="30" as="geometry" />
        </mxCell>
        <mxCell id="-VXj3v_io8pPZTzsjLdz-25" value="Convolutional Layer 17x17x64" style="rounded=0;whiteSpace=wrap;html=1;" vertex="1" parent="WIyWlLk6GJQsqaUBKTNV-1">
          <mxGeometry x="260" y="660" width="260" height="30" as="geometry" />
        </mxCell>
        <mxCell id="-VXj3v_io8pPZTzsjLdz-26" value="Relu Layer&amp;nbsp; 15x15x128" style="rounded=0;whiteSpace=wrap;html=1;" vertex="1" parent="WIyWlLk6GJQsqaUBKTNV-1">
          <mxGeometry x="260" y="700" width="260" height="30" as="geometry" />
        </mxCell>
        <mxCell id="-VXj3v_io8pPZTzsjLdz-27" value="Batch Normalization Layer&amp;nbsp; 7x7x128" style="rounded=0;whiteSpace=wrap;html=1;" vertex="1" parent="WIyWlLk6GJQsqaUBKTNV-1">
          <mxGeometry x="260" y="780" width="260" height="30" as="geometry" />
        </mxCell>
        <mxCell id="-VXj3v_io8pPZTzsjLdz-28" value="Max Pooling Layer&amp;nbsp; 7x7x128" style="rounded=0;whiteSpace=wrap;html=1;" vertex="1" parent="WIyWlLk6GJQsqaUBKTNV-1">
          <mxGeometry x="260" y="740" width="260" height="30" as="geometry" />
        </mxCell>
        <mxCell id="-VXj3v_io8pPZTzsjLdz-29" value="Dropout&amp;nbsp; 7x7x128" style="rounded=0;whiteSpace=wrap;html=1;" vertex="1" parent="WIyWlLk6GJQsqaUBKTNV-1">
          <mxGeometry x="260" y="820" width="260" height="30" as="geometry" />
        </mxCell>
        <mxCell id="-VXj3v_io8pPZTzsjLdz-30" value="Flattten 6272" style="rounded=0;whiteSpace=wrap;html=1;" vertex="1" parent="WIyWlLk6GJQsqaUBKTNV-1">
          <mxGeometry x="260" y="930" width="260" height="30" as="geometry" />
        </mxCell>
        <mxCell id="-VXj3v_io8pPZTzsjLdz-31" value="Dense 128" style="rounded=0;whiteSpace=wrap;html=1;" vertex="1" parent="WIyWlLk6GJQsqaUBKTNV-1">
          <mxGeometry x="260" y="970" width="260" height="30" as="geometry" />
        </mxCell>
        <mxCell id="-VXj3v_io8pPZTzsjLdz-32" value="Relu 128" style="rounded=0;whiteSpace=wrap;html=1;" vertex="1" parent="WIyWlLk6GJQsqaUBKTNV-1">
          <mxGeometry x="260" y="1010" width="260" height="30" as="geometry" />
        </mxCell>
        <mxCell id="-VXj3v_io8pPZTzsjLdz-33" value="Batch Normalization 128" style="rounded=0;whiteSpace=wrap;html=1;" vertex="1" parent="WIyWlLk6GJQsqaUBKTNV-1">
          <mxGeometry x="260" y="1050" width="260" height="30" as="geometry" />
        </mxCell>
        <mxCell id="-VXj3v_io8pPZTzsjLdz-34" value="Dropout 128" style="rounded=0;whiteSpace=wrap;html=1;" vertex="1" parent="WIyWlLk6GJQsqaUBKTNV-1">
          <mxGeometry x="260" y="1090" width="260" height="30" as="geometry" />
        </mxCell>
        <mxCell id="-VXj3v_io8pPZTzsjLdz-35" value="SoftMax 9" style="rounded=0;whiteSpace=wrap;html=1;" vertex="1" parent="WIyWlLk6GJQsqaUBKTNV-1">
          <mxGeometry x="260" y="1130" width="260" height="30" as="geometry" />
        </mxCell>
        <mxCell id="-VXj3v_io8pPZTzsjLdz-37" value="" style="shape=flexArrow;endArrow=classic;html=1;rounded=0;exitX=0;exitY=0.5;exitDx=0;exitDy=0;entryX=0;entryY=0.25;entryDx=0;entryDy=0;strokeWidth=1;endSize=7;startSize=6;strokeColor=none;" edge="1" parent="WIyWlLk6GJQsqaUBKTNV-1" source="-VXj3v_io8pPZTzsjLdz-1" target="-VXj3v_io8pPZTzsjLdz-2">
          <mxGeometry width="50" height="50" relative="1" as="geometry">
            <mxPoint x="170" y="200" as="sourcePoint" />
            <mxPoint x="220" y="150" as="targetPoint" />
            <Array as="points">
              <mxPoint x="170" y="135" />
              <mxPoint x="170" y="168" />
            </Array>
          </mxGeometry>
        </mxCell>
        <mxCell id="-VXj3v_io8pPZTzsjLdz-38" value="" style="shape=flexArrow;endArrow=classic;html=1;rounded=1;exitX=0;exitY=0.5;exitDx=0;exitDy=0;entryX=0;entryY=0.25;entryDx=0;entryDy=0;strokeWidth=1;startSize=5;width=6;endSize=5;endWidth=12;" edge="1" parent="WIyWlLk6GJQsqaUBKTNV-1" source="-VXj3v_io8pPZTzsjLdz-1">
          <mxGeometry width="50" height="50" relative="1" as="geometry">
            <mxPoint x="258" y="127" as="sourcePoint" />
            <mxPoint x="258" y="159.5" as="targetPoint" />
            <Array as="points">
              <mxPoint x="170" y="135" />
              <mxPoint x="170" y="160" />
            </Array>
          </mxGeometry>
        </mxCell>
        <mxCell id="-VXj3v_io8pPZTzsjLdz-42" value="" style="shape=flexArrow;endArrow=classic;html=1;rounded=1;exitX=0;exitY=0.5;exitDx=0;exitDy=0;entryX=0;entryY=0.25;entryDx=0;entryDy=0;strokeWidth=1;startSize=5;width=6;endSize=5;endWidth=12;" edge="1" parent="WIyWlLk6GJQsqaUBKTNV-1" target="-VXj3v_io8pPZTzsjLdz-4">
          <mxGeometry width="50" height="50" relative="1" as="geometry">
            <mxPoint x="260" y="175" as="sourcePoint" />
            <mxPoint x="258" y="199.5" as="targetPoint" />
            <Array as="points">
              <mxPoint x="170" y="175" />
              <mxPoint x="170" y="208" />
            </Array>
          </mxGeometry>
        </mxCell>
      </root>
    </mxGraphModel>
  </diagram>
</mxfile>
